# xmcd
#
# Track frame offsets: 
#        150
#        17672
#        34950
#        51657
#        78830
#        100512
#        120272
#        138595
#        154805
#        195747
#        211877
#        241825
#        267160
#
# Disc length: 3769 seconds
#
# Revision: 0
# Processed by: cddbd v1.5.2PL0 Copyright (c) Steve Scherf et al.
# Submitted via: ExactAudioCopy v0.95b4
#
DISCID=a80eb70d
DTITLE=Chris Hiatt - The Ballad of Texas Floyd
DYEAR=2002
DGENRE=Blues
TTITLE0=Statoil Stomp
TTITLE1=Babysit Your Baby
TTITLE2=Straight Up
TTITLE3=Once Upon the Blues
TTITLE4=This Ain't Love
TTITLE5=Mean 'ol Frisco
TTITLE6=Hugh Jazz
TTITLE7=Oath of Love
TTITLE8=Texas Flood
TTITLE9=Pipetripper
TTITLE10=Keep These Blues Away
TTITLE11=Quit You Woman
TTITLE12=Texas Floyd
EXTD=
EXTT0=
EXTT1=
EXTT2=
EXTT3=
EXTT4=
EXTT5=
EXTT6=
EXTT7=
EXTT8=
EXTT9=
EXTT10=
EXTT11=
EXTT12=
PLAYORDER=
